<svg width="40" height="40" viewBox="0 0 40 40" fill="none" xmlns="http://www.w3.org/2000/svg">
<g clip-path="url(#clip0_1512_5977)">
<path d="M27.5 20H35C35.3315 20 35.6495 20.1317 35.8839 20.3661C36.1183 20.6005 36.25 20.9185 36.25 21.25V31.25C36.25 31.5815 36.1183 31.8995 35.8839 32.1339C35.6495 32.3683 35.3315 32.5 35 32.5H5C4.66848 32.5 4.35054 32.3683 4.11612 32.1339C3.8817 31.8995 3.75 31.5815 3.75 31.25V21.25C3.75 20.9185 3.8817 20.6005 4.11612 20.3661C4.35054 20.1317 4.66848 20 5 20H12.5" stroke="#4540E1" stroke-width="2.5" stroke-linecap="round" stroke-linejoin="round"/>
<path d="M20 20V3.75" stroke="#4540E1" stroke-width="2.5" stroke-linecap="round" stroke-linejoin="round"/>
<path d="M12.5 11.25L20 3.75L27.5 11.25" stroke="#4540E1" stroke-width="2.5" stroke-linecap="round" stroke-linejoin="round"/>
<path d="M29.375 28.125C30.4105 28.125 31.25 27.2855 31.25 26.25C31.25 25.2145 30.4105 24.375 29.375 24.375C28.3395 24.375 27.5 25.2145 27.5 26.25C27.5 27.2855 28.3395 28.125 29.375 28.125Z" fill="#4540E1"/>
</g>
<defs>
<clipPath id="clip0_1512_5977">
<rect width="40" height="40" fill="white"/>
</clipPath>
</defs>
</svg>
